<!-- icon666.com - MILLIONS vector ICONS FREE --><svg version="1.1" id="Capa_1" xmlns="http://www.w3.org/2000/svg" xmlns:xlink="http://www.w3.org/1999/xlink" x="0px" y="0px" viewBox="0 0 512 512" style="enable-background:new 0 0 512 512;" xml:space="preserve"><path style="fill:#FFEE6E;" d="M440.63,511.998c-4.017,0-7.868-1.596-10.707-4.436l-202.801-202.8 c-5.914-5.914-5.914-15.502,0-21.416l56.227-56.227c5.913-5.914,15.502-5.914,21.416,0l202.801,202.8 c5.914,5.914,5.914,15.502,0,21.416l-56.227,56.228C448.498,510.402,444.646,511.998,440.63,511.998z"></path><path style="fill:#A1EAFF;" d="M182.256,364.516c-48.683,0-94.452-18.958-128.874-53.382C18.957,276.711,0,230.942,0,182.259 S18.957,87.809,53.382,53.385C87.806,18.96,133.575,0.003,182.256,0.003s94.452,18.957,128.875,53.382 c34.425,34.424,53.382,80.193,53.382,128.875s-18.957,94.452-53.382,128.875C276.708,345.558,230.939,364.516,182.256,364.516z"></path><path style="fill:#80DBFF;" d="M311.132,311.134c34.425-34.424,53.382-80.193,53.382-128.875s-18.958-94.451-53.382-128.874 C276.708,18.96,230.939,0.003,182.256,0.003v364.514C230.939,364.516,276.708,345.558,311.132,311.134z"></path><path style="fill:#FF3632;" d="M182.256,277.523c-2.608,0-5.216-0.673-7.554-2.019c-2.049-1.18-50.531-29.544-78.04-85.146 c-4.325-8.695-6.62-18.545-6.62-28.457c0-33.759,25.972-61.225,57.894-61.225c12.454,0,24.479,4.294,34.321,11.937 c9.842-7.643,21.867-11.937,34.321-11.937c31.922,0,57.894,27.466,57.894,61.225c0,9.912-2.294,19.763-6.634,28.486 c-27.494,55.574-75.976,83.937-78.025,85.117C187.473,276.851,184.864,277.523,182.256,277.523z"></path><path style="fill:#F50F19;" d="M189.812,275.504c2.049-1.18,50.531-29.544,78.025-85.117c4.34-8.725,6.634-18.575,6.634-28.487 c0-33.759-25.972-61.225-57.894-61.225c-12.454,0-24.479,4.294-34.321,11.937v164.911 C184.864,277.523,187.473,276.851,189.812,275.504z"></path></svg>